<svg xmlns="http://www.w3.org/2000/svg" viewBox="0 0 128 128" role="img" aria-label="Goose">
  <defs>
    <linearGradient id="g" x1="0" y1="0" x2="0" y2="1">
      <stop offset="0" stop-color="#7cf2c6" stop-opacity="0.95"/>
      <stop offset="1" stop-color="#7aa7ff" stop-opacity="0.85"/>
    </linearGradient>
  </defs>
  <rect x="10" y="10" width="108" height="108" rx="28" fill="url(#g)" opacity="0.18"/>
  <path d="M49 88c-6-3-10-9-11-16-2-14 9-25 23-26 7-1 14 1 19 6 2-10 9-18 18-22 3-1 7 0 9 3 1 2 1 5 0 7-1 2-3 3-5 4-7 3-11 10-11 18 0 9-4 18-11 24-8 7-20 9-31 2z" fill="#eaf0ff"/>
  <path d="M82 52c4-1 8 1 10 4 2 3 1 7-2 9-4 3-9 1-11-3-1-4 0-8 3-10z" fill="#0b1020" opacity="0.55"/>
  <path d="M92 68l18 6-18 6c-2 1-5 0-6-3-1-2 0-5 2-6 1-1 3-1 4-1z" fill="#ffbf5a"/>
</svg>
